<svg xmlns="http://www.w3.org/2000/svg" width="1024" height="1024" viewBox="0 0 1024 1024" role="img" aria-label="RadPlan App-Icon Mitarbeiterkalender">
  <defs>
    <linearGradient id="bg" x1="120" y1="90" x2="900" y2="950" gradientUnits="userSpaceOnUse">
      <stop offset="0" stop-color="#07111f"/>
      <stop offset="0.55" stop-color="#0d1f34"/>
      <stop offset="1" stop-color="#163253"/>
    </linearGradient>
    <linearGradient id="card" x1="230" y1="180" x2="780" y2="820" gradientUnits="userSpaceOnUse">
      <stop offset="0" stop-color="#f8fcff"/>
      <stop offset="1" stop-color="#d9eaf8"/>
    </linearGradient>
    <linearGradient id="head" x1="250" y1="220" x2="760" y2="420" gradientUnits="userSpaceOnUse">
      <stop offset="0" stop-color="#1f7bd2"/>
      <stop offset="1" stop-color="#0f4f93"/>
    </linearGradient>
    <linearGradient id="accent" x1="300" y1="320" x2="760" y2="760" gradientUnits="userSpaceOnUse">
      <stop offset="0" stop-color="#22d3ee"/>
      <stop offset="1" stop-color="#2563eb"/>
    </linearGradient>
    <filter id="shadow" x="-20%" y="-20%" width="140%" height="140%">
      <feDropShadow dx="0" dy="20" stdDeviation="20" flood-color="#020617" flood-opacity="0.35"/>
    </filter>
  </defs>

  <rect x="40" y="40" width="944" height="944" rx="220" fill="url(#bg)"/>
  <circle cx="220" cy="220" r="180" fill="#38bdf8" opacity="0.16"/>
  <circle cx="790" cy="810" r="210" fill="#818cf8" opacity="0.16"/>

  <g filter="url(#shadow)">
    <rect x="224" y="188" width="576" height="648" rx="96" fill="url(#card)"/>
    <rect x="224" y="188" width="576" height="178" rx="96" fill="url(#head)"/>
  </g>

  <g fill="#ffffff" opacity="0.95">
    <circle cx="334" cy="278" r="14"/>
    <circle cx="388" cy="278" r="14" opacity="0.7"/>
    <circle cx="442" cy="278" r="14" opacity="0.5"/>
  </g>

  <g stroke="#b8d5ec" stroke-width="16" stroke-linecap="round" opacity="0.9">
    <line x1="284" y1="444" x2="742" y2="444"/>
    <line x1="284" y1="542" x2="742" y2="542"/>
    <line x1="284" y1="640" x2="742" y2="640"/>
  </g>
  <g stroke="#c8e0f3" stroke-width="12" opacity="0.75">
    <line x1="418" y1="386" x2="418" y2="768"/>
    <line x1="552" y1="386" x2="552" y2="768"/>
    <line x1="686" y1="386" x2="686" y2="768"/>
  </g>

  <g>
    <rect x="445" y="573" width="98" height="98" rx="28" fill="url(#accent)"/>
    <path d="M471 622l21 21 43-43" fill="none" stroke="#ffffff" stroke-width="18" stroke-linecap="round" stroke-linejoin="round"/>
  </g>

  <g>
    <circle cx="338" cy="690" r="44" fill="#0f6fc4"/>
    <circle cx="338" cy="650" r="25" fill="#dbeafe"/>
    <path d="M294 726c8-22 26-34 44-34s36 12 44 34" fill="#dbeafe"/>
  </g>
</svg>
